<?xml version="1.0" encoding="UTF-8" standalone="no"?>
<!DOCTYPE svg PUBLIC "-//W3C//DTD SVG 1.1//EN"
 "http://www.w3.org/Graphics/SVG/1.1/DTD/svg11.dtd">
<!-- Generated by graphviz version 2.50.0 (20211204.2007)
 -->
<!-- Pages: 1 -->
<svg width="756pt" height="404pt"
 viewBox="0.00 0.00 755.62 404.00" xmlns="http://www.w3.org/2000/svg" xmlns:xlink="http://www.w3.org/1999/xlink">
<g id="graph0" class="graph" transform="scale(1 1) rotate(0) translate(4 400)">
<polygon fill="white" stroke="transparent" points="-4,4 -4,-400 751.62,-400 751.62,4 -4,4"/>
<!-- [root] aws_instance.stagging (expand) -->
<g id="node1" class="node">
<title>[root] aws_instance.stagging (expand)</title>
<polygon fill="none" stroke="black" points="584.94,-252 444.94,-252 444.94,-216 584.94,-216 584.94,-252"/>
<text text-anchor="middle" x="514.94" y="-230.3" font-family="Times New Roman,serif" font-size="14.00">aws_instance.stagging</text>
</g>
<!-- [root] aws_key_pair.my_key (expand) -->
<g id="node2" class="node">
<title>[root] aws_key_pair.my_key (expand)</title>
<polygon fill="none" stroke="black" points="467.94,-180 325.94,-180 325.94,-144 467.94,-144 467.94,-180"/>
<text text-anchor="middle" x="396.94" y="-158.3" font-family="Times New Roman,serif" font-size="14.00">aws_key_pair.my_key</text>
</g>
<!-- [root] aws_instance.stagging (expand)&#45;&gt;[root] aws_key_pair.my_key (expand) -->
<g id="edge1" class="edge">
<title>[root] aws_instance.stagging (expand)&#45;&gt;[root] aws_key_pair.my_key (expand)</title>
<path fill="none" stroke="black" d="M486.07,-215.88C470.64,-206.72 451.46,-195.34 434.84,-185.48"/>
<polygon fill="black" stroke="black" points="436.3,-182.28 425.92,-180.19 432.73,-188.3 436.3,-182.28"/>
</g>
<!-- [root] var.ami -->
<g id="node4" class="node">
<title>[root] var.ami</title>
<polygon fill="none" stroke="black" points="537.44,-180 486.44,-180 486.44,-144 543.44,-144 543.44,-174 537.44,-180"/>
<polyline fill="none" stroke="black" points="537.44,-180 537.44,-174 "/>
<polyline fill="none" stroke="black" points="543.44,-174 537.44,-174 "/>
<text text-anchor="middle" x="514.94" y="-158.3" font-family="Times New Roman,serif" font-size="14.00">var.ami</text>
</g>
<!-- [root] aws_instance.stagging (expand)&#45;&gt;[root] var.ami -->
<g id="edge2" class="edge">
<title>[root] aws_instance.stagging (expand)&#45;&gt;[root] var.ami</title>
<path fill="none" stroke="black" d="M514.94,-215.7C514.94,-207.98 514.94,-198.71 514.94,-190.11"/>
<polygon fill="black" stroke="black" points="518.44,-190.1 514.94,-180.1 511.44,-190.1 518.44,-190.1"/>
</g>
<!-- [root] var.tags -->
<g id="node6" class="node">
<title>[root] var.tags</title>
<polygon fill="none" stroke="black" points="615.94,-180 561.94,-180 561.94,-144 621.94,-144 621.94,-174 615.94,-180"/>
<polyline fill="none" stroke="black" points="615.94,-180 615.94,-174 "/>
<polyline fill="none" stroke="black" points="621.94,-174 615.94,-174 "/>
<text text-anchor="middle" x="591.94" y="-158.3" font-family="Times New Roman,serif" font-size="14.00">var.tags</text>
</g>
<!-- [root] aws_instance.stagging (expand)&#45;&gt;[root] var.tags -->
<g id="edge3" class="edge">
<title>[root] aws_instance.stagging (expand)&#45;&gt;[root] var.tags</title>
<path fill="none" stroke="black" d="M533.97,-215.7C543.48,-207.05 555.14,-196.45 565.51,-187.03"/>
<polygon fill="black" stroke="black" points="568.08,-189.42 573.12,-180.1 563.37,-184.24 568.08,-189.42"/>
</g>
<!-- [root] provider[&quot;registry.terraform.io/hashicorp/aws&quot;] -->
<g id="node3" class="node">
<title>[root] provider[&quot;registry.terraform.io/hashicorp/aws&quot;]</title>
<polygon fill="none" stroke="black" points="396.94,-108 139.71,-90 396.94,-72 654.17,-90 396.94,-108"/>
<text text-anchor="middle" x="396.94" y="-86.3" font-family="Times New Roman,serif" font-size="14.00">provider[&quot;registry.terraform.io/hashicorp/aws&quot;]</text>
</g>
<!-- [root] aws_key_pair.my_key (expand)&#45;&gt;[root] provider[&quot;registry.terraform.io/hashicorp/aws&quot;] -->
<g id="edge4" class="edge">
<title>[root] aws_key_pair.my_key (expand)&#45;&gt;[root] provider[&quot;registry.terraform.io/hashicorp/aws&quot;]</title>
<path fill="none" stroke="black" d="M396.94,-143.7C396.94,-135.98 396.94,-126.71 396.94,-118.11"/>
<polygon fill="black" stroke="black" points="400.44,-118.1 396.94,-108.1 393.44,-118.1 400.44,-118.1"/>
</g>
<!-- [root] var.region -->
<g id="node5" class="node">
<title>[root] var.region</title>
<polygon fill="none" stroke="black" points="426.94,-36 360.94,-36 360.94,0 432.94,0 432.94,-30 426.94,-36"/>
<polyline fill="none" stroke="black" points="426.94,-36 426.94,-30 "/>
<polyline fill="none" stroke="black" points="432.94,-30 426.94,-30 "/>
<text text-anchor="middle" x="396.94" y="-14.3" font-family="Times New Roman,serif" font-size="14.00">var.region</text>
</g>
<!-- [root] provider[&quot;registry.terraform.io/hashicorp/aws&quot;]&#45;&gt;[root] var.region -->
<g id="edge7" class="edge">
<title>[root] provider[&quot;registry.terraform.io/hashicorp/aws&quot;]&#45;&gt;[root] var.region</title>
<path fill="none" stroke="black" d="M396.94,-71.7C396.94,-63.98 396.94,-54.71 396.94,-46.11"/>
<polygon fill="black" stroke="black" points="400.44,-46.1 396.94,-36.1 393.44,-46.1 400.44,-46.1"/>
</g>
<!-- [root] output.timestamp (expand) -->
<g id="node7" class="node">
<title>[root] output.timestamp (expand)</title>
<ellipse fill="none" stroke="black" cx="131.94" cy="-306" rx="131.88" ry="18"/>
<text text-anchor="middle" x="131.94" y="-302.3" font-family="Times New Roman,serif" font-size="14.00">[root] output.timestamp (expand)</text>
</g>
<!-- [root] local.time (expand) -->
<g id="node8" class="node">
<title>[root] local.time (expand)</title>
<ellipse fill="none" stroke="black" cx="131.94" cy="-234" rx="103.18" ry="18"/>
<text text-anchor="middle" x="131.94" y="-230.3" font-family="Times New Roman,serif" font-size="14.00">[root] local.time (expand)</text>
</g>
<!-- [root] output.timestamp (expand)&#45;&gt;[root] local.time (expand) -->
<g id="edge5" class="edge">
<title>[root] output.timestamp (expand)&#45;&gt;[root] local.time (expand)</title>
<path fill="none" stroke="black" d="M131.94,-287.7C131.94,-279.98 131.94,-270.71 131.94,-262.11"/>
<polygon fill="black" stroke="black" points="135.44,-262.1 131.94,-252.1 128.44,-262.1 135.44,-262.1"/>
</g>
<!-- [root] provider[&quot;registry.terraform.io/hashicorp/aws&quot;] (close) -->
<g id="node9" class="node">
<title>[root] provider[&quot;registry.terraform.io/hashicorp/aws&quot;] (close)</title>
<ellipse fill="none" stroke="black" cx="514.94" cy="-306" rx="232.86" ry="18"/>
<text text-anchor="middle" x="514.94" y="-302.3" font-family="Times New Roman,serif" font-size="14.00">[root] provider[&quot;registry.terraform.io/hashicorp/aws&quot;] (close)</text>
</g>
<!-- [root] provider[&quot;registry.terraform.io/hashicorp/aws&quot;] (close)&#45;&gt;[root] aws_instance.stagging (expand) -->
<g id="edge6" class="edge">
<title>[root] provider[&quot;registry.terraform.io/hashicorp/aws&quot;] (close)&#45;&gt;[root] aws_instance.stagging (expand)</title>
<path fill="none" stroke="black" d="M514.94,-287.7C514.94,-279.98 514.94,-270.71 514.94,-262.11"/>
<polygon fill="black" stroke="black" points="518.44,-262.1 514.94,-252.1 511.44,-262.1 518.44,-262.1"/>
</g>
<!-- [root] root -->
<g id="node10" class="node">
<title>[root] root</title>
<ellipse fill="none" stroke="black" cx="322.94" cy="-378" rx="49.29" ry="18"/>
<text text-anchor="middle" x="322.94" y="-374.3" font-family="Times New Roman,serif" font-size="14.00">[root] root</text>
</g>
<!-- [root] root&#45;&gt;[root] output.timestamp (expand) -->
<g id="edge8" class="edge">
<title>[root] root&#45;&gt;[root] output.timestamp (expand)</title>
<path fill="none" stroke="black" d="M289.23,-364.65C260.48,-354.11 218.62,-338.77 185.32,-326.56"/>
<polygon fill="black" stroke="black" points="186.32,-323.2 175.73,-323.05 183.91,-329.78 186.32,-323.2"/>
</g>
<!-- [root] root&#45;&gt;[root] provider[&quot;registry.terraform.io/hashicorp/aws&quot;] (close) -->
<g id="edge9" class="edge">
<title>[root] root&#45;&gt;[root] provider[&quot;registry.terraform.io/hashicorp/aws&quot;] (close)</title>
<path fill="none" stroke="black" d="M356.82,-364.65C385.24,-354.29 426.38,-339.29 459.57,-327.19"/>
<polygon fill="black" stroke="black" points="460.95,-330.41 469.15,-323.7 458.55,-323.83 460.95,-330.41"/>
</g>
</g>
</svg>
