<?xml version="1.0" encoding="UTF-8" standalone="no"?>
<!DOCTYPE svg PUBLIC "-//W3C//DTD SVG 1.1//EN"
 "http://www.w3.org/Graphics/SVG/1.1/DTD/svg11.dtd">
<!-- Generated by graphviz version 2.50.0 (20211204.2007)
 -->
<!-- Pages: 1 -->
<svg width="523pt" height="404pt"
 viewBox="0.00 0.00 522.73 404.00" xmlns="http://www.w3.org/2000/svg" xmlns:xlink="http://www.w3.org/1999/xlink">
<g id="graph0" class="graph" transform="scale(1 1) rotate(0) translate(4 400)">
<polygon fill="white" stroke="transparent" points="-4,4 -4,-400 518.73,-400 518.73,4 -4,4"/>
<!-- [root] aws_eip.lb (expand) -->
<g id="node1" class="node">
<title>[root] aws_eip.lb (expand)</title>
<polygon fill="none" stroke="black" points="295.86,-180 218.86,-180 218.86,-144 295.86,-144 295.86,-180"/>
<text text-anchor="middle" x="257.36" y="-158.3" font-family="Times New Roman,serif" font-size="14.00">aws_eip.lb</text>
</g>
<!-- [root] aws_instance.myec2 (expand) -->
<g id="node2" class="node">
<title>[root] aws_instance.myec2 (expand)</title>
<polygon fill="none" stroke="black" points="322.86,-108 191.86,-108 191.86,-72 322.86,-72 322.86,-108"/>
<text text-anchor="middle" x="257.36" y="-86.3" font-family="Times New Roman,serif" font-size="14.00">aws_instance.myec2</text>
</g>
<!-- [root] aws_eip.lb (expand)&#45;&gt;[root] aws_instance.myec2 (expand) -->
<g id="edge1" class="edge">
<title>[root] aws_eip.lb (expand)&#45;&gt;[root] aws_instance.myec2 (expand)</title>
<path fill="none" stroke="black" d="M257.36,-143.7C257.36,-135.98 257.36,-126.71 257.36,-118.11"/>
<polygon fill="black" stroke="black" points="260.86,-118.1 257.36,-108.1 253.86,-118.1 260.86,-118.1"/>
</g>
<!-- [root] provider[&quot;registry.terraform.io/hashicorp/aws&quot;] -->
<g id="node4" class="node">
<title>[root] provider[&quot;registry.terraform.io/hashicorp/aws&quot;]</title>
<polygon fill="none" stroke="black" points="257.36,-36 0.14,-18 257.36,0 514.59,-18 257.36,-36"/>
<text text-anchor="middle" x="257.36" y="-14.3" font-family="Times New Roman,serif" font-size="14.00">provider[&quot;registry.terraform.io/hashicorp/aws&quot;]</text>
</g>
<!-- [root] aws_instance.myec2 (expand)&#45;&gt;[root] provider[&quot;registry.terraform.io/hashicorp/aws&quot;] -->
<g id="edge2" class="edge">
<title>[root] aws_instance.myec2 (expand)&#45;&gt;[root] provider[&quot;registry.terraform.io/hashicorp/aws&quot;]</title>
<path fill="none" stroke="black" d="M257.36,-71.7C257.36,-63.98 257.36,-54.71 257.36,-46.11"/>
<polygon fill="black" stroke="black" points="260.86,-46.1 257.36,-36.1 253.86,-46.1 260.86,-46.1"/>
</g>
<!-- [root] aws_security_group.allow_tls (expand) -->
<g id="node3" class="node">
<title>[root] aws_security_group.allow_tls (expand)</title>
<polygon fill="none" stroke="black" points="348.86,-252 165.86,-252 165.86,-216 348.86,-216 348.86,-252"/>
<text text-anchor="middle" x="257.36" y="-230.3" font-family="Times New Roman,serif" font-size="14.00">aws_security_group.allow_tls</text>
</g>
<!-- [root] aws_security_group.allow_tls (expand)&#45;&gt;[root] aws_eip.lb (expand) -->
<g id="edge3" class="edge">
<title>[root] aws_security_group.allow_tls (expand)&#45;&gt;[root] aws_eip.lb (expand)</title>
<path fill="none" stroke="black" d="M257.36,-215.7C257.36,-207.98 257.36,-198.71 257.36,-190.11"/>
<polygon fill="black" stroke="black" points="260.86,-190.1 257.36,-180.1 253.86,-190.1 260.86,-190.1"/>
</g>
<!-- [root] provider[&quot;registry.terraform.io/hashicorp/aws&quot;] (close) -->
<g id="node5" class="node">
<title>[root] provider[&quot;registry.terraform.io/hashicorp/aws&quot;] (close)</title>
<ellipse fill="none" stroke="black" cx="257.36" cy="-306" rx="232.86" ry="18"/>
<text text-anchor="middle" x="257.36" y="-302.3" font-family="Times New Roman,serif" font-size="14.00">[root] provider[&quot;registry.terraform.io/hashicorp/aws&quot;] (close)</text>
</g>
<!-- [root] provider[&quot;registry.terraform.io/hashicorp/aws&quot;] (close)&#45;&gt;[root] aws_security_group.allow_tls (expand) -->
<g id="edge4" class="edge">
<title>[root] provider[&quot;registry.terraform.io/hashicorp/aws&quot;] (close)&#45;&gt;[root] aws_security_group.allow_tls (expand)</title>
<path fill="none" stroke="black" d="M257.36,-287.7C257.36,-279.98 257.36,-270.71 257.36,-262.11"/>
<polygon fill="black" stroke="black" points="260.86,-262.1 257.36,-252.1 253.86,-262.1 260.86,-262.1"/>
</g>
<!-- [root] root -->
<g id="node6" class="node">
<title>[root] root</title>
<ellipse fill="none" stroke="black" cx="257.36" cy="-378" rx="49.29" ry="18"/>
<text text-anchor="middle" x="257.36" y="-374.3" font-family="Times New Roman,serif" font-size="14.00">[root] root</text>
</g>
<!-- [root] root&#45;&gt;[root] provider[&quot;registry.terraform.io/hashicorp/aws&quot;] (close) -->
<g id="edge5" class="edge">
<title>[root] root&#45;&gt;[root] provider[&quot;registry.terraform.io/hashicorp/aws&quot;] (close)</title>
<path fill="none" stroke="black" d="M257.36,-359.7C257.36,-351.98 257.36,-342.71 257.36,-334.11"/>
<polygon fill="black" stroke="black" points="260.86,-334.1 257.36,-324.1 253.86,-334.1 260.86,-334.1"/>
</g>
</g>
</svg>
